<svg width="19" height="19" viewBox="0 0 19 19" fill="none" xmlns="http://www.w3.org/2000/svg">
<path d="M17.7262 4.73136C16.8767 3.27594 15.7243 2.12359 14.2689 1.2741C12.8131 0.424641 11.224 0 9.50028 0C7.77672 0 6.18712 0.424641 4.73166 1.2741C3.27612 2.12346 2.12377 3.27581 1.27423 4.73136C0.424641 6.18699 0 7.77659 0 9.50002C0 11.2235 0.424771 12.8129 1.2741 14.2686C2.12359 15.724 3.27594 16.8764 4.73149 17.7259C6.18712 18.5754 7.77659 19 9.50011 19C11.2236 19 12.8133 18.5754 14.2688 17.7259C15.7243 16.8767 16.8766 15.724 17.726 14.2686C18.5754 12.813 19 11.2235 19 9.50002C19 7.77642 18.5754 6.18678 17.7262 4.73136ZM9.50015 1.38544C11.5452 1.38544 13.3306 2.06164 14.8562 3.41398L14.7016 3.63031C14.6397 3.71705 14.4851 3.88385 14.2378 4.13138C13.9904 4.37868 13.7203 4.61386 13.4276 4.83647C13.1347 5.05917 12.737 5.31271 12.2338 5.59723C11.7307 5.88176 11.1947 6.13136 10.6256 6.34574C9.67736 4.59731 8.66313 3.02222 7.58279 1.6204C8.23437 1.46373 8.87344 1.38544 9.50015 1.38544ZM3.14219 4.46521C3.93381 3.46757 4.89851 2.70053 6.03665 2.16458C7.05919 3.52524 8.06519 5.08395 9.05484 6.8404C6.5479 7.50012 4.04927 7.83001 1.55879 7.82988C1.82282 6.58473 2.35058 5.46305 3.14219 4.46521ZM1.92975 12.4257C1.56685 11.498 1.38544 10.5227 1.38544 9.50002C1.38544 9.38451 1.38969 9.2979 1.39784 9.24024C4.38323 9.24024 7.15828 8.85689 9.72293 8.0898C9.98688 8.60105 10.2054 9.05874 10.3786 9.46293C10.3452 9.4794 10.292 9.49786 10.2177 9.51852C10.1432 9.53915 10.0898 9.55344 10.0565 9.5618L9.59894 9.72259C9.28543 9.8381 8.87504 10.0361 8.36808 10.3163C7.86099 10.597 7.32292 10.9307 6.75387 11.3184C6.18482 11.7062 5.59723 12.2195 4.99119 12.8588C4.38505 13.4979 3.87584 14.1842 3.4635 14.9181C2.80377 14.1842 2.29257 13.3532 1.92975 12.4257ZM9.50015 17.6147C7.5704 17.6147 5.84688 16.9962 4.32946 15.7593L4.51503 15.8954C4.80363 15.2603 5.22827 14.65 5.78917 14.0646C6.34998 13.4792 6.89009 13.0069 7.40962 12.648C7.92914 12.2895 8.49399 11.9515 9.10432 11.6336C9.71453 11.3163 10.1308 11.1141 10.3536 11.0278C10.5763 10.9412 10.7537 10.873 10.8856 10.8234L10.9102 10.811H10.9351C11.743 12.9303 12.3206 14.9839 12.6668 16.9713C11.6442 17.4003 10.5888 17.6146 9.50015 17.6147ZM16.3286 13.8852C15.7183 14.8295 14.9554 15.611 14.0403 16.2293C13.7019 14.3326 13.1744 12.3986 12.4567 10.4278C14.0978 10.1719 15.7842 10.2917 17.516 10.7863C17.3345 11.9078 16.9386 12.941 16.3286 13.8852ZM17.4911 9.38872C17.4086 9.37234 17.3054 9.35362 17.1818 9.33313C17.0581 9.31264 16.9075 9.28777 16.7301 9.25891C16.5531 9.23006 16.3548 9.20332 16.1365 9.17854C15.9179 9.1538 15.685 9.13119 15.4374 9.11056C15.1901 9.08985 14.9261 9.07352 14.6459 9.06104C14.3652 9.04874 14.0808 9.0425 13.7921 9.0425C13.5038 9.0425 13.2004 9.05086 12.8831 9.06724C12.5657 9.08348 12.2586 9.11269 11.9618 9.15384C11.9369 9.11255 11.906 9.04449 11.8689 8.9496C11.8319 8.85485 11.8048 8.78258 11.7889 8.7331C11.632 8.38675 11.4505 7.995 11.2441 7.55805C11.8132 7.32699 12.3555 7.06114 12.8712 6.76007C13.3865 6.45899 13.7985 6.19115 14.1079 5.95615C14.4172 5.72089 14.71 5.47142 14.9862 5.2076C15.2625 4.94374 15.4417 4.76034 15.5244 4.65723C15.607 4.55394 15.6853 4.45299 15.7594 4.35416L15.7718 4.34168C16.9758 5.80958 17.5904 7.50004 17.6149 9.41341L17.4911 9.38872Z" fill="#F4B400"/>
</svg>
