<svg width="19" height="19" viewBox="0 0 19 19" fill="none" xmlns="http://www.w3.org/2000/svg">
<path d="M19 11.5534V18.5778H14.9277V12.0239C14.9277 10.3774 14.3387 9.25384 12.8646 9.25384C11.7394 9.25384 11.0697 10.0111 10.7751 10.7436C10.6677 11.0054 10.6401 11.3699 10.6401 11.7365V18.5778H6.56638C6.56638 18.5778 6.62124 7.47755 6.56638 6.32748H10.6397V8.06392C10.6314 8.07691 10.6207 8.09091 10.6129 8.1035H10.6397V8.06392C11.1808 7.2304 12.1473 6.03969 14.3106 6.03969C16.9908 6.03965 19 7.79057 19 11.5534ZM2.30513 0.422211C0.911531 0.422211 0 1.3363 0 2.53837C0 3.71424 0.885159 4.65607 2.25106 4.65607H2.27828C3.69887 4.65607 4.58235 3.71441 4.58235 2.53837C4.55558 1.3363 3.69887 0.422211 2.30513 0.422211ZM0.241941 18.5778H4.31408V6.32748H0.241941V18.5778Z" fill="#F4B400"/>
</svg>
